<?xml version="1.0" encoding="UTF-8"?>
<svg xmlns="http://www.w3.org/2000/svg" version="1.1" viewBox="0 0 115.9 44.4">
  <defs>
    <style>
      .cls-1 {
        font-family: BimboPro-Jumbo, 'Bimbo Pro';
        font-size: 21px;
      }

      .cls-1, .cls-2 {
        fill: #f0e8e1;
      }
    </style>
  </defs>
  <!-- Generator: Adobe Illustrator 28.7.1, SVG Export Plug-In . SVG Version: 1.2.0 Build 142)  -->
  <g>
    <g id="Layer_1">
      <text/>
      <text class="cls-1" transform="translate(10.3 25.3)"><tspan x="0" y="0">pure glo</tspan></text>
      <path class="cls-2" d="M107.1,27.3l-1.2-1.4c-.2-.2-.5-.3-.8-.2l-1.7.7c-.7.3-1.3-.5-.9-1.1l1-1.5c.2-.3.2-.6,0-.9l-1.1-1.4c-.4-.5,0-1.3.7-1.2l1.8.5c.3,0,.6,0,.8-.3l1-1.5c.4-.6,1.3-.3,1.3.4v1.8c0,.3.3.6.6.7l1.7.4c.7.2.7,1.1,0,1.4l-1.7.7c-.3.1-.5.4-.5.7v1.8c.1.7-.8,1-1.2.5Z"/>
    </g>
  </g>
</svg>